<svg width="136" height="418" xmlns="http://www.w3.org/2000/svg"><g fill="#F7992C" fill-rule="evenodd"><circle transform="rotate(-180 133.911 121.294)" cx="133.911" cy="121.294" r="1.434"/><circle transform="rotate(-180 121.868 121.294)" cx="121.868" cy="121.294" r="1.434"/><circle transform="rotate(-180 109.824 121.294)" cx="109.824" cy="121.294" r="1.434"/><circle transform="rotate(-180 97.781 121.294)" cx="97.781" cy="121.294" r="1.434"/><circle transform="rotate(-180 85.738 121.294)" cx="85.738" cy="121.294" r="1.434"/><circle transform="rotate(-180 73.694 121.294)" cx="73.694" cy="121.294" r="1.434"/><circle transform="rotate(-180 61.65 121.294)" cx="61.651" cy="121.294" r="1.434"/><circle transform="rotate(-180 49.607 121.294)" cx="49.607" cy="121.294" r="1.434"/><circle transform="rotate(-180 37.564 121.294)" cx="37.564" cy="121.294" r="1.434"/><circle transform="rotate(-180 25.52 121.294)" cx="25.521" cy="121.294" r="1.434"/><circle transform="rotate(-180 13.477 121.294)" cx="13.477" cy="121.294" r="1.434"/><circle transform="rotate(-180 1.434 121.294)" cx="1.434" cy="121.294" r="1.434"/><circle transform="rotate(-180 133.911 110.398)" cx="133.911" cy="110.398" r="1.434"/><circle transform="rotate(-180 121.868 110.398)" cx="121.868" cy="110.398" r="1.434"/><circle transform="rotate(-180 109.824 110.398)" cx="109.824" cy="110.398" r="1.434"/><circle transform="rotate(-180 97.781 110.398)" cx="97.781" cy="110.398" r="1.434"/><circle transform="rotate(-180 85.738 110.398)" cx="85.738" cy="110.398" r="1.434"/><circle transform="rotate(-180 73.694 110.398)" cx="73.694" cy="110.398" r="1.434"/><circle transform="rotate(-180 61.65 110.398)" cx="61.651" cy="110.398" r="1.434"/><circle transform="rotate(-180 49.607 110.398)" cx="49.607" cy="110.398" r="1.434"/><circle transform="rotate(-180 37.564 110.398)" cx="37.564" cy="110.398" r="1.434"/><circle transform="rotate(-180 25.52 110.398)" cx="25.521" cy="110.398" r="1.434"/><circle transform="rotate(-180 13.477 110.398)" cx="13.477" cy="110.398" r="1.434"/><circle transform="rotate(-180 1.434 110.398)" cx="1.434" cy="110.398" r="1.434"/><circle transform="rotate(-180 133.911 99.502)" cx="133.911" cy="99.502" r="1.434"/><circle transform="rotate(-180 121.868 99.502)" cx="121.868" cy="99.502" r="1.434"/><circle transform="rotate(-180 109.824 99.502)" cx="109.824" cy="99.502" r="1.434"/><circle transform="rotate(-180 97.781 99.502)" cx="97.781" cy="99.502" r="1.434"/><circle transform="rotate(-180 85.738 99.502)" cx="85.738" cy="99.502" r="1.434"/><circle transform="rotate(-180 73.694 99.502)" cx="73.694" cy="99.502" r="1.434"/><circle transform="rotate(-180 61.65 99.502)" cx="61.651" cy="99.502" r="1.434"/><circle transform="rotate(-180 49.607 99.502)" cx="49.607" cy="99.502" r="1.434"/><circle transform="rotate(-180 37.564 99.502)" cx="37.564" cy="99.502" r="1.434"/><circle transform="rotate(-180 25.52 99.502)" cx="25.521" cy="99.502" r="1.434"/><circle transform="rotate(-180 13.477 99.502)" cx="13.477" cy="99.502" r="1.434"/><circle transform="rotate(-180 1.434 99.502)" cx="1.434" cy="99.502" r="1.434"/><circle transform="rotate(-180 133.911 88.605)" cx="133.911" cy="88.605" r="1.434"/><circle transform="rotate(-180 121.868 88.605)" cx="121.868" cy="88.605" r="1.434"/><circle transform="rotate(-180 109.824 88.605)" cx="109.824" cy="88.605" r="1.434"/><circle transform="rotate(-180 97.781 88.605)" cx="97.781" cy="88.605" r="1.434"/><circle transform="rotate(-180 85.738 88.605)" cx="85.738" cy="88.605" r="1.434"/><circle transform="rotate(-180 73.694 88.605)" cx="73.694" cy="88.605" r="1.434"/><circle transform="rotate(-180 61.65 88.605)" cx="61.651" cy="88.605" r="1.434"/><circle transform="rotate(-180 49.607 88.605)" cx="49.607" cy="88.605" r="1.434"/><circle transform="rotate(-180 37.564 88.605)" cx="37.564" cy="88.605" r="1.434"/><circle transform="rotate(-180 25.52 88.605)" cx="25.521" cy="88.605" r="1.434"/><circle transform="rotate(-180 13.477 88.605)" cx="13.477" cy="88.605" r="1.434"/><circle transform="rotate(-180 1.434 88.605)" cx="1.434" cy="88.605" r="1.434"/><circle transform="rotate(-180 133.911 77.709)" cx="133.911" cy="77.709" r="1.434"/><circle transform="rotate(-180 121.868 77.709)" cx="121.868" cy="77.709" r="1.434"/><circle transform="rotate(-180 109.824 77.709)" cx="109.824" cy="77.709" r="1.434"/><circle transform="rotate(-180 97.781 77.709)" cx="97.781" cy="77.709" r="1.434"/><circle transform="rotate(-180 85.738 77.709)" cx="85.738" cy="77.709" r="1.434"/><circle transform="rotate(-180 73.694 77.709)" cx="73.694" cy="77.709" r="1.434"/><circle transform="rotate(-180 61.65 77.709)" cx="61.651" cy="77.709" r="1.434"/><circle transform="rotate(-180 49.607 77.709)" cx="49.607" cy="77.709" r="1.434"/><circle transform="rotate(-180 37.564 77.709)" cx="37.564" cy="77.709" r="1.434"/><circle transform="rotate(-180 25.52 77.709)" cx="25.521" cy="77.709" r="1.434"/><circle transform="rotate(-180 13.477 77.709)" cx="13.477" cy="77.709" r="1.434"/><circle transform="rotate(-180 1.434 77.709)" cx="1.434" cy="77.709" r="1.434"/><circle transform="rotate(-180 133.911 66.812)" cx="133.911" cy="66.812" r="1.434"/><circle transform="rotate(-180 121.868 66.812)" cx="121.868" cy="66.812" r="1.434"/><circle transform="rotate(-180 109.824 66.812)" cx="109.824" cy="66.812" r="1.434"/><circle transform="rotate(-180 97.781 66.812)" cx="97.781" cy="66.812" r="1.434"/><circle transform="rotate(-180 85.738 66.812)" cx="85.738" cy="66.812" r="1.434"/><circle transform="rotate(-180 73.694 66.812)" cx="73.694" cy="66.812" r="1.434"/><circle transform="rotate(-180 61.65 66.812)" cx="61.651" cy="66.812" r="1.434"/><circle transform="rotate(-180 49.607 66.812)" cx="49.607" cy="66.812" r="1.434"/><circle transform="rotate(-180 37.564 66.812)" cx="37.564" cy="66.812" r="1.434"/><circle transform="rotate(-180 25.52 66.812)" cx="25.521" cy="66.812" r="1.434"/><circle transform="rotate(-180 13.477 66.812)" cx="13.477" cy="66.812" r="1.434"/><circle transform="rotate(-180 1.434 66.812)" cx="1.434" cy="66.812" r="1.434"/><circle transform="rotate(-180 133.911 55.916)" cx="133.911" cy="55.916" r="1.434"/><circle transform="rotate(-180 121.868 55.916)" cx="121.868" cy="55.916" r="1.434"/><circle transform="rotate(-180 109.824 55.916)" cx="109.824" cy="55.916" r="1.434"/><circle transform="rotate(-180 97.781 55.916)" cx="97.781" cy="55.916" r="1.434"/><circle transform="rotate(-180 85.738 55.916)" cx="85.738" cy="55.916" r="1.434"/><circle transform="rotate(-180 73.694 55.916)" cx="73.694" cy="55.916" r="1.434"/><circle transform="rotate(-180 61.65 55.916)" cx="61.651" cy="55.916" r="1.434"/><circle transform="rotate(-180 49.607 55.916)" cx="49.607" cy="55.916" r="1.434"/><circle transform="rotate(-180 37.564 55.916)" cx="37.564" cy="55.916" r="1.434"/><circle transform="rotate(-180 25.52 55.916)" cx="25.521" cy="55.916" r="1.434"/><circle transform="rotate(-180 13.477 55.916)" cx="13.477" cy="55.916" r="1.434"/><circle transform="rotate(-180 1.434 55.916)" cx="1.434" cy="55.916" r="1.434"/><circle transform="rotate(-180 133.911 45.02)" cx="133.911" cy="45.019" r="1.434"/><circle transform="rotate(-180 121.868 45.02)" cx="121.868" cy="45.019" r="1.434"/><circle transform="rotate(-180 109.824 45.02)" cx="109.824" cy="45.019" r="1.434"/><circle transform="rotate(-180 97.781 45.02)" cx="97.781" cy="45.019" r="1.434"/><circle transform="rotate(-180 85.738 45.02)" cx="85.738" cy="45.019" r="1.434"/><circle transform="rotate(-180 73.694 45.02)" cx="73.694" cy="45.019" r="1.434"/><circle transform="rotate(-180 61.65 45.02)" cx="61.651" cy="45.019" r="1.434"/><circle transform="rotate(-180 49.607 45.02)" cx="49.607" cy="45.019" r="1.434"/><circle transform="rotate(-180 37.564 45.02)" cx="37.564" cy="45.019" r="1.434"/><circle transform="rotate(-180 25.52 45.02)" cx="25.521" cy="45.019" r="1.434"/><circle transform="rotate(-180 13.477 45.02)" cx="13.477" cy="45.019" r="1.434"/><circle transform="rotate(-180 1.434 45.02)" cx="1.434" cy="45.019" r="1.434"/><circle transform="rotate(-180 133.911 34.123)" cx="133.911" cy="34.123" r="1.434"/><circle transform="rotate(-180 121.868 34.123)" cx="121.868" cy="34.123" r="1.434"/><circle transform="rotate(-180 109.824 34.123)" cx="109.824" cy="34.123" r="1.434"/><circle transform="rotate(-180 97.781 34.123)" cx="97.781" cy="34.123" r="1.434"/><circle transform="rotate(-180 85.738 34.123)" cx="85.738" cy="34.123" r="1.434"/><circle transform="rotate(-180 73.694 34.123)" cx="73.694" cy="34.123" r="1.434"/><circle transform="rotate(-180 61.65 34.123)" cx="61.651" cy="34.123" r="1.434"/><circle transform="rotate(-180 49.607 34.123)" cx="49.607" cy="34.123" r="1.434"/><circle transform="rotate(-180 37.564 34.123)" cx="37.564" cy="34.123" r="1.434"/><circle transform="rotate(-180 25.52 34.123)" cx="25.521" cy="34.123" r="1.434"/><circle transform="rotate(-180 13.477 34.123)" cx="13.477" cy="34.123" r="1.434"/><circle transform="rotate(-180 1.434 34.123)" cx="1.434" cy="34.123" r="1.434"/><circle transform="rotate(-180 133.911 23.227)" cx="133.911" cy="23.227" r="1.434"/><circle transform="rotate(-180 121.868 23.227)" cx="121.868" cy="23.227" r="1.434"/><circle transform="rotate(-180 109.824 23.227)" cx="109.824" cy="23.227" r="1.434"/><circle transform="rotate(-180 97.781 23.227)" cx="97.781" cy="23.227" r="1.434"/><circle transform="rotate(-180 85.738 23.227)" cx="85.738" cy="23.227" r="1.434"/><circle transform="rotate(-180 73.694 23.227)" cx="73.694" cy="23.227" r="1.434"/><circle transform="rotate(-180 61.65 23.227)" cx="61.651" cy="23.227" r="1.434"/><circle transform="rotate(-180 49.607 23.227)" cx="49.607" cy="23.227" r="1.434"/><circle transform="rotate(-180 37.564 23.227)" cx="37.564" cy="23.227" r="1.434"/><circle transform="rotate(-180 25.52 23.227)" cx="25.521" cy="23.227" r="1.434"/><circle transform="rotate(-180 13.477 23.227)" cx="13.477" cy="23.227" r="1.434"/><circle transform="rotate(-180 1.434 23.227)" cx="1.434" cy="23.227" r="1.434"/><circle transform="rotate(-180 133.911 12.33)" cx="133.911" cy="12.33" r="1.434"/><circle transform="rotate(-180 121.868 12.33)" cx="121.868" cy="12.33" r="1.434"/><circle transform="rotate(-180 109.824 12.33)" cx="109.824" cy="12.33" r="1.434"/><circle transform="rotate(-180 97.781 12.33)" cx="97.781" cy="12.33" r="1.434"/><circle transform="rotate(-180 85.738 12.33)" cx="85.738" cy="12.33" r="1.434"/><circle transform="rotate(-180 73.694 12.33)" cx="73.694" cy="12.33" r="1.434"/><circle transform="rotate(-180 61.65 12.33)" cx="61.651" cy="12.33" r="1.434"/><circle transform="rotate(-180 49.607 12.33)" cx="49.607" cy="12.33" r="1.434"/><circle transform="rotate(-180 37.564 12.33)" cx="37.564" cy="12.33" r="1.434"/><circle transform="rotate(-180 25.52 12.33)" cx="25.521" cy="12.33" r="1.434"/><circle transform="rotate(-180 13.477 12.33)" cx="13.477" cy="12.33" r="1.434"/><circle transform="rotate(-180 1.434 12.33)" cx="1.434" cy="12.33" r="1.434"/><circle transform="rotate(-180 133.911 1.434)" cx="133.911" cy="1.434" r="1.434"/><circle transform="rotate(-180 121.868 1.434)" cx="121.868" cy="1.434" r="1.434"/><circle transform="rotate(-180 109.824 1.434)" cx="109.824" cy="1.434" r="1.434"/><circle transform="rotate(-180 97.781 1.434)" cx="97.781" cy="1.434" r="1.434"/><circle transform="rotate(-180 85.738 1.434)" cx="85.738" cy="1.434" r="1.434"/><circle transform="rotate(-180 73.694 1.434)" cx="73.694" cy="1.434" r="1.434"/><circle transform="rotate(-180 61.65 1.434)" cx="61.651" cy="1.434" r="1.434"/><circle transform="rotate(-180 49.607 1.434)" cx="49.607" cy="1.434" r="1.434"/><circle transform="rotate(-180 37.564 1.434)" cx="37.564" cy="1.434" r="1.434"/><circle transform="rotate(-180 25.52 1.434)" cx="25.521" cy="1.434" r="1.434"/><circle transform="rotate(-180 13.477 1.434)" cx="13.477" cy="1.434" r="1.434"/><circle transform="rotate(-180 1.434 1.434)" cx="1.434" cy="1.434" r="1.434"/><circle transform="rotate(-180 133.911 252.294)" cx="133.911" cy="252.294" r="1.434"/><circle transform="rotate(-180 121.868 252.294)" cx="121.868" cy="252.294" r="1.434"/><circle transform="rotate(-180 109.824 252.294)" cx="109.824" cy="252.294" r="1.434"/><circle transform="rotate(-180 97.781 252.294)" cx="97.781" cy="252.294" r="1.434"/><circle transform="rotate(-180 85.738 252.294)" cx="85.738" cy="252.294" r="1.434"/><circle transform="rotate(-180 73.694 252.294)" cx="73.694" cy="252.294" r="1.434"/><circle transform="rotate(-180 61.65 252.294)" cx="61.651" cy="252.294" r="1.434"/><circle transform="rotate(-180 49.607 252.294)" cx="49.607" cy="252.294" r="1.434"/><circle transform="rotate(-180 37.564 252.294)" cx="37.564" cy="252.294" r="1.434"/><circle transform="rotate(-180 25.52 252.294)" cx="25.521" cy="252.294" r="1.434"/><circle transform="rotate(-180 13.477 252.294)" cx="13.477" cy="252.294" r="1.434"/><circle transform="rotate(-180 1.434 252.294)" cx="1.434" cy="252.294" r="1.434"/><circle transform="rotate(-180 133.911 241.398)" cx="133.911" cy="241.398" r="1.434"/><circle transform="rotate(-180 121.868 241.398)" cx="121.868" cy="241.398" r="1.434"/><circle transform="rotate(-180 109.824 241.398)" cx="109.824" cy="241.398" r="1.434"/><circle transform="rotate(-180 97.781 241.398)" cx="97.781" cy="241.398" r="1.434"/><circle transform="rotate(-180 85.738 241.398)" cx="85.738" cy="241.398" r="1.434"/><circle transform="rotate(-180 73.694 241.398)" cx="73.694" cy="241.398" r="1.434"/><circle transform="rotate(-180 61.65 241.398)" cx="61.651" cy="241.398" r="1.434"/><circle transform="rotate(-180 49.607 241.398)" cx="49.607" cy="241.398" r="1.434"/><circle transform="rotate(-180 37.564 241.398)" cx="37.564" cy="241.398" r="1.434"/><circle transform="rotate(-180 25.52 241.398)" cx="25.521" cy="241.398" r="1.434"/><circle transform="rotate(-180 13.477 241.398)" cx="13.477" cy="241.398" r="1.434"/><circle transform="rotate(-180 1.434 241.398)" cx="1.434" cy="241.398" r="1.434"/><circle transform="rotate(-180 133.911 230.502)" cx="133.911" cy="230.502" r="1.434"/><circle transform="rotate(-180 121.868 230.502)" cx="121.868" cy="230.502" r="1.434"/><circle transform="rotate(-180 109.824 230.502)" cx="109.824" cy="230.502" r="1.434"/><circle transform="rotate(-180 97.781 230.502)" cx="97.781" cy="230.502" r="1.434"/><circle transform="rotate(-180 85.738 230.502)" cx="85.738" cy="230.502" r="1.434"/><circle transform="rotate(-180 73.694 230.502)" cx="73.694" cy="230.502" r="1.434"/><circle transform="rotate(-180 61.65 230.502)" cx="61.651" cy="230.502" r="1.434"/><circle transform="rotate(-180 49.607 230.502)" cx="49.607" cy="230.502" r="1.434"/><circle transform="rotate(-180 37.564 230.502)" cx="37.564" cy="230.502" r="1.434"/><circle transform="rotate(-180 25.52 230.502)" cx="25.521" cy="230.502" r="1.434"/><circle transform="rotate(-180 13.477 230.502)" cx="13.477" cy="230.502" r="1.434"/><circle transform="rotate(-180 1.434 230.502)" cx="1.434" cy="230.502" r="1.434"/><circle transform="rotate(-180 133.911 219.605)" cx="133.911" cy="219.605" r="1.434"/><circle transform="rotate(-180 121.868 219.605)" cx="121.868" cy="219.605" r="1.434"/><circle transform="rotate(-180 109.824 219.605)" cx="109.824" cy="219.605" r="1.434"/><circle transform="rotate(-180 97.781 219.605)" cx="97.781" cy="219.605" r="1.434"/><circle transform="rotate(-180 85.738 219.605)" cx="85.738" cy="219.605" r="1.434"/><circle transform="rotate(-180 73.694 219.605)" cx="73.694" cy="219.605" r="1.434"/><circle transform="rotate(-180 61.65 219.605)" cx="61.651" cy="219.605" r="1.434"/><circle transform="rotate(-180 49.607 219.605)" cx="49.607" cy="219.605" r="1.434"/><circle transform="rotate(-180 37.564 219.605)" cx="37.564" cy="219.605" r="1.434"/><circle transform="rotate(-180 25.52 219.605)" cx="25.521" cy="219.605" r="1.434"/><circle transform="rotate(-180 13.477 219.605)" cx="13.477" cy="219.605" r="1.434"/><circle transform="rotate(-180 1.434 219.605)" cx="1.434" cy="219.605" r="1.434"/><circle transform="rotate(-180 133.911 208.709)" cx="133.911" cy="208.709" r="1.434"/><circle transform="rotate(-180 121.868 208.709)" cx="121.868" cy="208.709" r="1.434"/><circle transform="rotate(-180 109.824 208.709)" cx="109.824" cy="208.709" r="1.434"/><circle transform="rotate(-180 97.781 208.709)" cx="97.781" cy="208.709" r="1.434"/><circle transform="rotate(-180 85.738 208.709)" cx="85.738" cy="208.709" r="1.434"/><circle transform="rotate(-180 73.694 208.709)" cx="73.694" cy="208.709" r="1.434"/><circle transform="rotate(-180 61.65 208.709)" cx="61.651" cy="208.709" r="1.434"/><circle transform="rotate(-180 49.607 208.709)" cx="49.607" cy="208.709" r="1.434"/><circle transform="rotate(-180 37.564 208.709)" cx="37.564" cy="208.709" r="1.434"/><circle transform="rotate(-180 25.52 208.709)" cx="25.521" cy="208.709" r="1.434"/><circle transform="rotate(-180 13.477 208.709)" cx="13.477" cy="208.709" r="1.434"/><circle transform="rotate(-180 1.434 208.709)" cx="1.434" cy="208.709" r="1.434"/><circle transform="rotate(-180 133.911 197.812)" cx="133.911" cy="197.812" r="1.434"/><circle transform="rotate(-180 121.868 197.812)" cx="121.868" cy="197.812" r="1.434"/><circle transform="rotate(-180 109.824 197.812)" cx="109.824" cy="197.812" r="1.434"/><circle transform="rotate(-180 97.781 197.812)" cx="97.781" cy="197.812" r="1.434"/><circle transform="rotate(-180 85.738 197.812)" cx="85.738" cy="197.812" r="1.434"/><circle transform="rotate(-180 73.694 197.812)" cx="73.694" cy="197.812" r="1.434"/><circle transform="rotate(-180 61.65 197.812)" cx="61.651" cy="197.812" r="1.434"/><circle transform="rotate(-180 49.607 197.812)" cx="49.607" cy="197.812" r="1.434"/><circle transform="rotate(-180 37.564 197.812)" cx="37.564" cy="197.812" r="1.434"/><circle transform="rotate(-180 25.52 197.812)" cx="25.521" cy="197.812" r="1.434"/><circle transform="rotate(-180 13.477 197.812)" cx="13.477" cy="197.812" r="1.434"/><circle transform="rotate(-180 1.434 197.812)" cx="1.434" cy="197.812" r="1.434"/><circle transform="rotate(-180 133.911 186.916)" cx="133.911" cy="186.916" r="1.434"/><circle transform="rotate(-180 121.868 186.916)" cx="121.868" cy="186.916" r="1.434"/><circle transform="rotate(-180 109.824 186.916)" cx="109.824" cy="186.916" r="1.434"/><circle transform="rotate(-180 97.781 186.916)" cx="97.781" cy="186.916" r="1.434"/><circle transform="rotate(-180 85.738 186.916)" cx="85.738" cy="186.916" r="1.434"/><circle transform="rotate(-180 73.694 186.916)" cx="73.694" cy="186.916" r="1.434"/><circle transform="rotate(-180 61.65 186.916)" cx="61.651" cy="186.916" r="1.434"/><circle transform="rotate(-180 49.607 186.916)" cx="49.607" cy="186.916" r="1.434"/><circle transform="rotate(-180 37.564 186.916)" cx="37.564" cy="186.916" r="1.434"/><circle transform="rotate(-180 25.52 186.916)" cx="25.521" cy="186.916" r="1.434"/><circle transform="rotate(-180 13.477 186.916)" cx="13.477" cy="186.916" r="1.434"/><circle transform="rotate(-180 1.434 186.916)" cx="1.434" cy="186.916" r="1.434"/><circle transform="rotate(-180 133.911 176.02)" cx="133.911" cy="176.019" r="1.434"/><circle transform="rotate(-180 121.868 176.02)" cx="121.868" cy="176.019" r="1.434"/><circle transform="rotate(-180 109.824 176.02)" cx="109.824" cy="176.019" r="1.434"/><circle transform="rotate(-180 97.781 176.02)" cx="97.781" cy="176.019" r="1.434"/><circle transform="rotate(-180 85.738 176.02)" cx="85.738" cy="176.019" r="1.434"/><circle transform="rotate(-180 73.694 176.02)" cx="73.694" cy="176.019" r="1.434"/><circle transform="rotate(-180 61.65 176.02)" cx="61.651" cy="176.019" r="1.434"/><circle transform="rotate(-180 49.607 176.02)" cx="49.607" cy="176.019" r="1.434"/><circle transform="rotate(-180 37.564 176.02)" cx="37.564" cy="176.019" r="1.434"/><circle transform="rotate(-180 25.52 176.02)" cx="25.521" cy="176.019" r="1.434"/><circle transform="rotate(-180 13.477 176.02)" cx="13.477" cy="176.019" r="1.434"/><circle transform="rotate(-180 1.434 176.02)" cx="1.434" cy="176.019" r="1.434"/><circle transform="rotate(-180 133.911 165.123)" cx="133.911" cy="165.123" r="1.434"/><circle transform="rotate(-180 121.868 165.123)" cx="121.868" cy="165.123" r="1.434"/><circle transform="rotate(-180 109.824 165.123)" cx="109.824" cy="165.123" r="1.434"/><circle transform="rotate(-180 97.781 165.123)" cx="97.781" cy="165.123" r="1.434"/><circle transform="rotate(-180 85.738 165.123)" cx="85.738" cy="165.123" r="1.434"/><circle transform="rotate(-180 73.694 165.123)" cx="73.694" cy="165.123" r="1.434"/><circle transform="rotate(-180 61.65 165.123)" cx="61.651" cy="165.123" r="1.434"/><circle transform="rotate(-180 49.607 165.123)" cx="49.607" cy="165.123" r="1.434"/><circle transform="rotate(-180 37.564 165.123)" cx="37.564" cy="165.123" r="1.434"/><circle transform="rotate(-180 25.52 165.123)" cx="25.521" cy="165.123" r="1.434"/><circle transform="rotate(-180 13.477 165.123)" cx="13.477" cy="165.123" r="1.434"/><circle transform="rotate(-180 1.434 165.123)" cx="1.434" cy="165.123" r="1.434"/><circle transform="rotate(-180 133.911 154.227)" cx="133.911" cy="154.227" r="1.434"/><circle transform="rotate(-180 121.868 154.227)" cx="121.868" cy="154.227" r="1.434"/><circle transform="rotate(-180 109.824 154.227)" cx="109.824" cy="154.227" r="1.434"/><circle transform="rotate(-180 97.781 154.227)" cx="97.781" cy="154.227" r="1.434"/><circle transform="rotate(-180 85.738 154.227)" cx="85.738" cy="154.227" r="1.434"/><circle transform="rotate(-180 73.694 154.227)" cx="73.694" cy="154.227" r="1.434"/><circle transform="rotate(-180 61.65 154.227)" cx="61.651" cy="154.227" r="1.434"/><circle transform="rotate(-180 49.607 154.227)" cx="49.607" cy="154.227" r="1.434"/><circle transform="rotate(-180 37.564 154.227)" cx="37.564" cy="154.227" r="1.434"/><circle transform="rotate(-180 25.52 154.227)" cx="25.521" cy="154.227" r="1.434"/><circle transform="rotate(-180 13.477 154.227)" cx="13.477" cy="154.227" r="1.434"/><circle transform="rotate(-180 1.434 154.227)" cx="1.434" cy="154.227" r="1.434"/><circle transform="rotate(-180 133.911 143.33)" cx="133.911" cy="143.33" r="1.434"/><circle transform="rotate(-180 121.868 143.33)" cx="121.868" cy="143.33" r="1.434"/><circle transform="rotate(-180 109.824 143.33)" cx="109.824" cy="143.33" r="1.434"/><circle transform="rotate(-180 97.781 143.33)" cx="97.781" cy="143.33" r="1.434"/><circle transform="rotate(-180 85.738 143.33)" cx="85.738" cy="143.33" r="1.434"/><circle transform="rotate(-180 73.694 143.33)" cx="73.694" cy="143.33" r="1.434"/><circle transform="rotate(-180 61.65 143.33)" cx="61.651" cy="143.33" r="1.434"/><circle transform="rotate(-180 49.607 143.33)" cx="49.607" cy="143.33" r="1.434"/><circle transform="rotate(-180 37.564 143.33)" cx="37.564" cy="143.33" r="1.434"/><circle transform="rotate(-180 25.52 143.33)" cx="25.521" cy="143.33" r="1.434"/><circle transform="rotate(-180 13.477 143.33)" cx="13.477" cy="143.33" r="1.434"/><circle transform="rotate(-180 1.434 143.33)" cx="1.434" cy="143.33" r="1.434"/><circle transform="rotate(-180 133.911 132.434)" cx="133.911" cy="132.434" r="1.434"/><circle transform="rotate(-180 121.868 132.434)" cx="121.868" cy="132.434" r="1.434"/><circle transform="rotate(-180 109.824 132.434)" cx="109.824" cy="132.434" r="1.434"/><circle transform="rotate(-180 97.781 132.434)" cx="97.781" cy="132.434" r="1.434"/><circle transform="rotate(-180 85.738 132.434)" cx="85.738" cy="132.434" r="1.434"/><circle transform="rotate(-180 73.694 132.434)" cx="73.694" cy="132.434" r="1.434"/><circle transform="rotate(-180 61.65 132.434)" cx="61.651" cy="132.434" r="1.434"/><circle transform="rotate(-180 49.607 132.434)" cx="49.607" cy="132.434" r="1.434"/><circle transform="rotate(-180 37.564 132.434)" cx="37.564" cy="132.434" r="1.434"/><circle transform="rotate(-180 25.52 132.434)" cx="25.521" cy="132.434" r="1.434"/><circle transform="rotate(-180 13.477 132.434)" cx="13.477" cy="132.434" r="1.434"/><circle transform="rotate(-180 1.434 132.434)" cx="1.434" cy="132.434" r="1.434"/><circle transform="rotate(-180 133.911 383.294)" cx="133.911" cy="383.294" r="1.434"/><circle transform="rotate(-180 121.868 383.294)" cx="121.868" cy="383.294" r="1.434"/><circle transform="rotate(-180 109.824 383.294)" cx="109.824" cy="383.294" r="1.434"/><circle transform="rotate(-180 97.781 383.294)" cx="97.781" cy="383.294" r="1.434"/><circle transform="rotate(-180 85.738 383.294)" cx="85.738" cy="383.294" r="1.434"/><circle transform="rotate(-180 73.694 383.294)" cx="73.694" cy="383.294" r="1.434"/><circle transform="rotate(-180 61.65 383.294)" cx="61.651" cy="383.294" r="1.434"/><circle transform="rotate(-180 49.607 383.294)" cx="49.607" cy="383.294" r="1.434"/><circle transform="rotate(-180 37.564 383.294)" cx="37.564" cy="383.294" r="1.434"/><circle transform="rotate(-180 25.52 383.294)" cx="25.521" cy="383.294" r="1.434"/><circle transform="rotate(-180 13.477 383.294)" cx="13.477" cy="383.294" r="1.434"/><circle transform="rotate(-180 1.434 383.294)" cx="1.434" cy="383.294" r="1.434"/><circle transform="rotate(-180 133.911 372.398)" cx="133.911" cy="372.398" r="1.434"/><circle transform="rotate(-180 121.868 372.398)" cx="121.868" cy="372.398" r="1.434"/><circle transform="rotate(-180 109.824 372.398)" cx="109.824" cy="372.398" r="1.434"/><circle transform="rotate(-180 97.781 372.398)" cx="97.781" cy="372.398" r="1.434"/><circle transform="rotate(-180 85.738 372.398)" cx="85.738" cy="372.398" r="1.434"/><circle transform="rotate(-180 73.694 372.398)" cx="73.694" cy="372.398" r="1.434"/><circle transform="rotate(-180 61.65 372.398)" cx="61.651" cy="372.398" r="1.434"/><circle transform="rotate(-180 49.607 372.398)" cx="49.607" cy="372.398" r="1.434"/><circle transform="rotate(-180 37.564 372.398)" cx="37.564" cy="372.398" r="1.434"/><circle transform="rotate(-180 25.52 372.398)" cx="25.521" cy="372.398" r="1.434"/><circle transform="rotate(-180 13.477 372.398)" cx="13.477" cy="372.398" r="1.434"/><circle transform="rotate(-180 1.434 372.398)" cx="1.434" cy="372.398" r="1.434"/><circle transform="rotate(-180 133.911 361.502)" cx="133.911" cy="361.502" r="1.434"/><circle transform="rotate(-180 121.868 361.502)" cx="121.868" cy="361.502" r="1.434"/><circle transform="rotate(-180 109.824 361.502)" cx="109.824" cy="361.502" r="1.434"/><circle transform="rotate(-180 97.781 361.502)" cx="97.781" cy="361.502" r="1.434"/><circle transform="rotate(-180 85.738 361.502)" cx="85.738" cy="361.502" r="1.434"/><circle transform="rotate(-180 73.694 361.502)" cx="73.694" cy="361.502" r="1.434"/><circle transform="rotate(-180 61.65 361.502)" cx="61.651" cy="361.502" r="1.434"/><circle transform="rotate(-180 49.607 361.502)" cx="49.607" cy="361.502" r="1.434"/><circle transform="rotate(-180 37.564 361.502)" cx="37.564" cy="361.502" r="1.434"/><circle transform="rotate(-180 25.52 361.502)" cx="25.521" cy="361.502" r="1.434"/><circle transform="rotate(-180 13.477 361.502)" cx="13.477" cy="361.502" r="1.434"/><circle transform="rotate(-180 1.434 361.502)" cx="1.434" cy="361.502" r="1.434"/><circle transform="rotate(-180 133.911 416.227)" cx="133.911" cy="416.227" r="1.434"/><circle transform="rotate(-180 121.868 416.227)" cx="121.868" cy="416.227" r="1.434"/><circle transform="rotate(-180 109.824 416.227)" cx="109.824" cy="416.227" r="1.434"/><circle transform="rotate(-180 97.781 416.227)" cx="97.781" cy="416.227" r="1.434"/><circle transform="rotate(-180 85.738 416.227)" cx="85.738" cy="416.227" r="1.434"/><circle transform="rotate(-180 73.694 416.227)" cx="73.694" cy="416.227" r="1.434"/><circle transform="rotate(-180 61.65 416.227)" cx="61.651" cy="416.227" r="1.434"/><circle transform="rotate(-180 49.607 416.227)" cx="49.607" cy="416.227" r="1.434"/><circle transform="rotate(-180 37.564 416.227)" cx="37.564" cy="416.227" r="1.434"/><circle transform="rotate(-180 25.52 416.227)" cx="25.521" cy="416.227" r="1.434"/><circle transform="rotate(-180 13.477 416.227)" cx="13.477" cy="416.227" r="1.434"/><circle transform="rotate(-180 1.434 416.227)" cx="1.434" cy="416.227" r="1.434"/><circle transform="rotate(-180 133.911 405.33)" cx="133.911" cy="405.33" r="1.434"/><circle transform="rotate(-180 121.868 405.33)" cx="121.868" cy="405.33" r="1.434"/><circle transform="rotate(-180 109.824 405.33)" cx="109.824" cy="405.33" r="1.434"/><circle transform="rotate(-180 97.781 405.33)" cx="97.781" cy="405.33" r="1.434"/><circle transform="rotate(-180 85.738 405.33)" cx="85.738" cy="405.33" r="1.434"/><circle transform="rotate(-180 73.694 405.33)" cx="73.694" cy="405.33" r="1.434"/><circle transform="rotate(-180 61.65 405.33)" cx="61.651" cy="405.33" r="1.434"/><circle transform="rotate(-180 49.607 405.33)" cx="49.607" cy="405.33" r="1.434"/><circle transform="rotate(-180 37.564 405.33)" cx="37.564" cy="405.33" r="1.434"/><circle transform="rotate(-180 25.52 405.33)" cx="25.521" cy="405.33" r="1.434"/><circle transform="rotate(-180 13.477 405.33)" cx="13.477" cy="405.33" r="1.434"/><circle transform="rotate(-180 1.434 405.33)" cx="1.434" cy="405.33" r="1.434"/><circle transform="rotate(-180 133.911 394.434)" cx="133.911" cy="394.434" r="1.434"/><circle transform="rotate(-180 121.868 394.434)" cx="121.868" cy="394.434" r="1.434"/><circle transform="rotate(-180 109.824 394.434)" cx="109.824" cy="394.434" r="1.434"/><circle transform="rotate(-180 97.781 394.434)" cx="97.781" cy="394.434" r="1.434"/><circle transform="rotate(-180 85.738 394.434)" cx="85.738" cy="394.434" r="1.434"/><circle transform="rotate(-180 73.694 394.434)" cx="73.694" cy="394.434" r="1.434"/><circle transform="rotate(-180 61.65 394.434)" cx="61.651" cy="394.434" r="1.434"/><circle transform="rotate(-180 49.607 394.434)" cx="49.607" cy="394.434" r="1.434"/><circle transform="rotate(-180 37.564 394.434)" cx="37.564" cy="394.434" r="1.434"/><circle transform="rotate(-180 25.52 394.434)" cx="25.521" cy="394.434" r="1.434"/><circle transform="rotate(-180 13.477 394.434)" cx="13.477" cy="394.434" r="1.434"/><circle transform="rotate(-180 1.434 394.434)" cx="1.434" cy="394.434" r="1.434"/><circle transform="rotate(-180 133.911 350.605)" cx="133.911" cy="350.605" r="1.434"/><circle transform="rotate(-180 121.868 350.605)" cx="121.868" cy="350.605" r="1.434"/><circle transform="rotate(-180 109.824 350.605)" cx="109.824" cy="350.605" r="1.434"/><circle transform="rotate(-180 97.781 350.605)" cx="97.781" cy="350.605" r="1.434"/><circle transform="rotate(-180 85.738 350.605)" cx="85.738" cy="350.605" r="1.434"/><circle transform="rotate(-180 73.694 350.605)" cx="73.694" cy="350.605" r="1.434"/><circle transform="rotate(-180 61.65 350.605)" cx="61.651" cy="350.605" r="1.434"/><circle transform="rotate(-180 49.607 350.605)" cx="49.607" cy="350.605" r="1.434"/><circle transform="rotate(-180 37.564 350.605)" cx="37.564" cy="350.605" r="1.434"/><circle transform="rotate(-180 25.52 350.605)" cx="25.521" cy="350.605" r="1.434"/><circle transform="rotate(-180 13.477 350.605)" cx="13.477" cy="350.605" r="1.434"/><circle transform="rotate(-180 1.434 350.605)" cx="1.434" cy="350.605" r="1.434"/><circle transform="rotate(-180 133.911 339.709)" cx="133.911" cy="339.709" r="1.434"/><circle transform="rotate(-180 121.868 339.709)" cx="121.868" cy="339.709" r="1.434"/><circle transform="rotate(-180 109.824 339.709)" cx="109.824" cy="339.709" r="1.434"/><circle transform="rotate(-180 97.781 339.709)" cx="97.781" cy="339.709" r="1.434"/><circle transform="rotate(-180 85.738 339.709)" cx="85.738" cy="339.709" r="1.434"/><circle transform="rotate(-180 73.694 339.709)" cx="73.694" cy="339.709" r="1.434"/><circle transform="rotate(-180 61.65 339.709)" cx="61.651" cy="339.709" r="1.434"/><circle transform="rotate(-180 49.607 339.709)" cx="49.607" cy="339.709" r="1.434"/><circle transform="rotate(-180 37.564 339.709)" cx="37.564" cy="339.709" r="1.434"/><circle transform="rotate(-180 25.52 339.709)" cx="25.521" cy="339.709" r="1.434"/><circle transform="rotate(-180 13.477 339.709)" cx="13.477" cy="339.709" r="1.434"/><circle transform="rotate(-180 1.434 339.709)" cx="1.434" cy="339.709" r="1.434"/><circle transform="rotate(-180 133.911 328.812)" cx="133.911" cy="328.812" r="1.434"/><circle transform="rotate(-180 121.868 328.812)" cx="121.868" cy="328.812" r="1.434"/><circle transform="rotate(-180 109.824 328.812)" cx="109.824" cy="328.812" r="1.434"/><circle transform="rotate(-180 97.781 328.812)" cx="97.781" cy="328.812" r="1.434"/><circle transform="rotate(-180 85.738 328.812)" cx="85.738" cy="328.812" r="1.434"/><circle transform="rotate(-180 73.694 328.812)" cx="73.694" cy="328.812" r="1.434"/><circle transform="rotate(-180 61.65 328.812)" cx="61.651" cy="328.812" r="1.434"/><circle transform="rotate(-180 49.607 328.812)" cx="49.607" cy="328.812" r="1.434"/><circle transform="rotate(-180 37.564 328.812)" cx="37.564" cy="328.812" r="1.434"/><circle transform="rotate(-180 25.52 328.812)" cx="25.521" cy="328.812" r="1.434"/><circle transform="rotate(-180 13.477 328.812)" cx="13.477" cy="328.812" r="1.434"/><circle transform="rotate(-180 1.434 328.812)" cx="1.434" cy="328.812" r="1.434"/><circle transform="rotate(-180 133.911 317.916)" cx="133.911" cy="317.916" r="1.434"/><circle transform="rotate(-180 121.868 317.916)" cx="121.868" cy="317.916" r="1.434"/><circle transform="rotate(-180 109.824 317.916)" cx="109.824" cy="317.916" r="1.434"/><circle transform="rotate(-180 97.781 317.916)" cx="97.781" cy="317.916" r="1.434"/><circle transform="rotate(-180 85.738 317.916)" cx="85.738" cy="317.916" r="1.434"/><circle transform="rotate(-180 73.694 317.916)" cx="73.694" cy="317.916" r="1.434"/><circle transform="rotate(-180 61.65 317.916)" cx="61.651" cy="317.916" r="1.434"/><circle transform="rotate(-180 49.607 317.916)" cx="49.607" cy="317.916" r="1.434"/><circle transform="rotate(-180 37.564 317.916)" cx="37.564" cy="317.916" r="1.434"/><circle transform="rotate(-180 25.52 317.916)" cx="25.521" cy="317.916" r="1.434"/><circle transform="rotate(-180 13.477 317.916)" cx="13.477" cy="317.916" r="1.434"/><circle transform="rotate(-180 1.434 317.916)" cx="1.434" cy="317.916" r="1.434"/><circle transform="rotate(-180 133.911 307.02)" cx="133.911" cy="307.019" r="1.434"/><circle transform="rotate(-180 121.868 307.02)" cx="121.868" cy="307.019" r="1.434"/><circle transform="rotate(-180 109.824 307.02)" cx="109.824" cy="307.019" r="1.434"/><circle transform="rotate(-180 97.781 307.02)" cx="97.781" cy="307.019" r="1.434"/><circle transform="rotate(-180 85.738 307.02)" cx="85.738" cy="307.019" r="1.434"/><circle transform="rotate(-180 73.694 307.02)" cx="73.694" cy="307.019" r="1.434"/><circle transform="rotate(-180 61.65 307.02)" cx="61.651" cy="307.019" r="1.434"/><circle transform="rotate(-180 49.607 307.02)" cx="49.607" cy="307.019" r="1.434"/><circle transform="rotate(-180 37.564 307.02)" cx="37.564" cy="307.019" r="1.434"/><circle transform="rotate(-180 25.52 307.02)" cx="25.521" cy="307.019" r="1.434"/><circle transform="rotate(-180 13.477 307.02)" cx="13.477" cy="307.019" r="1.434"/><circle transform="rotate(-180 1.434 307.02)" cx="1.434" cy="307.019" r="1.434"/><circle transform="rotate(-180 133.911 296.123)" cx="133.911" cy="296.123" r="1.434"/><circle transform="rotate(-180 121.868 296.123)" cx="121.868" cy="296.123" r="1.434"/><circle transform="rotate(-180 109.824 296.123)" cx="109.824" cy="296.123" r="1.434"/><circle transform="rotate(-180 97.781 296.123)" cx="97.781" cy="296.123" r="1.434"/><circle transform="rotate(-180 85.738 296.123)" cx="85.738" cy="296.123" r="1.434"/><circle transform="rotate(-180 73.694 296.123)" cx="73.694" cy="296.123" r="1.434"/><circle transform="rotate(-180 61.65 296.123)" cx="61.651" cy="296.123" r="1.434"/><circle transform="rotate(-180 49.607 296.123)" cx="49.607" cy="296.123" r="1.434"/><circle transform="rotate(-180 37.564 296.123)" cx="37.564" cy="296.123" r="1.434"/><circle transform="rotate(-180 25.52 296.123)" cx="25.521" cy="296.123" r="1.434"/><circle transform="rotate(-180 13.477 296.123)" cx="13.477" cy="296.123" r="1.434"/><circle transform="rotate(-180 1.434 296.123)" cx="1.434" cy="296.123" r="1.434"/><circle transform="rotate(-180 133.911 285.227)" cx="133.911" cy="285.227" r="1.434"/><circle transform="rotate(-180 121.868 285.227)" cx="121.868" cy="285.227" r="1.434"/><circle transform="rotate(-180 109.824 285.227)" cx="109.824" cy="285.227" r="1.434"/><circle transform="rotate(-180 97.781 285.227)" cx="97.781" cy="285.227" r="1.434"/><circle transform="rotate(-180 85.738 285.227)" cx="85.738" cy="285.227" r="1.434"/><circle transform="rotate(-180 73.694 285.227)" cx="73.694" cy="285.227" r="1.434"/><circle transform="rotate(-180 61.65 285.227)" cx="61.651" cy="285.227" r="1.434"/><circle transform="rotate(-180 49.607 285.227)" cx="49.607" cy="285.227" r="1.434"/><circle transform="rotate(-180 37.564 285.227)" cx="37.564" cy="285.227" r="1.434"/><circle transform="rotate(-180 25.52 285.227)" cx="25.521" cy="285.227" r="1.434"/><circle transform="rotate(-180 13.477 285.227)" cx="13.477" cy="285.227" r="1.434"/><circle transform="rotate(-180 1.434 285.227)" cx="1.434" cy="285.227" r="1.434"/><circle transform="rotate(-180 133.911 274.33)" cx="133.911" cy="274.33" r="1.434"/><circle transform="rotate(-180 121.868 274.33)" cx="121.868" cy="274.33" r="1.434"/><circle transform="rotate(-180 109.824 274.33)" cx="109.824" cy="274.33" r="1.434"/><circle transform="rotate(-180 97.781 274.33)" cx="97.781" cy="274.33" r="1.434"/><circle transform="rotate(-180 85.738 274.33)" cx="85.738" cy="274.33" r="1.434"/><circle transform="rotate(-180 73.694 274.33)" cx="73.694" cy="274.33" r="1.434"/><circle transform="rotate(-180 61.65 274.33)" cx="61.651" cy="274.33" r="1.434"/><circle transform="rotate(-180 49.607 274.33)" cx="49.607" cy="274.33" r="1.434"/><circle transform="rotate(-180 37.564 274.33)" cx="37.564" cy="274.33" r="1.434"/><circle transform="rotate(-180 25.52 274.33)" cx="25.521" cy="274.33" r="1.434"/><circle transform="rotate(-180 13.477 274.33)" cx="13.477" cy="274.33" r="1.434"/><circle transform="rotate(-180 1.434 274.33)" cx="1.434" cy="274.33" r="1.434"/><circle transform="rotate(-180 133.911 263.434)" cx="133.911" cy="263.434" r="1.434"/><circle transform="rotate(-180 121.868 263.434)" cx="121.868" cy="263.434" r="1.434"/><circle transform="rotate(-180 109.824 263.434)" cx="109.824" cy="263.434" r="1.434"/><circle transform="rotate(-180 97.781 263.434)" cx="97.781" cy="263.434" r="1.434"/><circle transform="rotate(-180 85.738 263.434)" cx="85.738" cy="263.434" r="1.434"/><circle transform="rotate(-180 73.694 263.434)" cx="73.694" cy="263.434" r="1.434"/><circle transform="rotate(-180 61.65 263.434)" cx="61.651" cy="263.434" r="1.434"/><circle transform="rotate(-180 49.607 263.434)" cx="49.607" cy="263.434" r="1.434"/><circle transform="rotate(-180 37.564 263.434)" cx="37.564" cy="263.434" r="1.434"/><circle transform="rotate(-180 25.52 263.434)" cx="25.521" cy="263.434" r="1.434"/><circle transform="rotate(-180 13.477 263.434)" cx="13.477" cy="263.434" r="1.434"/><circle transform="rotate(-180 1.434 263.434)" cx="1.434" cy="263.434" r="1.434"/></g></svg>