<svg width="190" height="15" xmlns="http://www.w3.org/2000/svg"><path d="M115.513 7.827A1257.446 1257.446 0 0 1 69.37 9.105c-8.833.085-17.668.082-26.496-.04L37.19 8.97l-2.76-.066a178.557 178.557 0 0 1-5.608-.24 74.871 74.871 0 0 1-2.82-.22c-.47-.047-.938-.1-1.403-.17-.463-.075-.935-.14-1.365-.313-.093-.045-.234-.113-.2-.227.049-.097.165-.145.265-.192.21-.087.436-.145.66-.2a18.12 18.12 0 0 1 1.373-.253c.923-.14 1.855-.247 2.79-.344a172.07 172.07 0 0 1 5.612-.472l2.782-.173 4.827-.239c26.098-1.169 52.288-.567 78.255 1.54.549.044 1.102.093 1.651.139-1.911.1-3.824.196-5.737.287m28.461-4.67C129.363 1.423 114.738.53 100.124.178 85.507-.17 70.899.02 56.257.524c-3.642.126-7.286.279-10.93.464l-5.468.303-6.826.446a436.73 436.73 0 0 0-8.13.659c-2.654.24-5.257.497-7.694.783-2.444.284-4.697.598-6.578.94a38.592 38.592 0 0 0-4.488 1.08c-1.204.367-2.26.726-3.27 1.118-.503.198-.996.403-1.472.645a6.412 6.412 0 0 0-.704.408c-.224.165-.462.32-.635.65a.611.611 0 0 0 .045.614c.096.153.209.257.323.351.229.185.471.32.712.447.488.247.985.443 1.502.629 1.03.366 2.11.685 3.326 1.004 1.22.316 2.597.63 4.426.898 1.821.268 4.038.488 6.437.67 4.817.363 10.255.586 15.624.734l4.27.1 3.059.05 5.78.06c3.852.026 7.703.027 11.554.006 7.702-.041 15.4-.166 23.095-.368 15.39-.41 30.769-1.105 46.121-2.207 5.062-.365 10.12-.782 15.174-1.256 4.532.518 9.069 1.052 13.588 1.581 11.888 1.4 23.692 2.71 34.902 3.667-1.837-2.234-7.56-4.533-15.698-6.589-2.307-.583-26.271-4.771-30.328-5.253z" fill="#AABA4A" fill-rule="evenodd"/></svg>