<?xml version="1.0" encoding="UTF-8"?>
<svg width="46px" height="54px" viewBox="0 0 46 54" version="1.1" xmlns="http://www.w3.org/2000/svg" xmlns:xlink="http://www.w3.org/1999/xlink">
    <g id="Desktop" stroke="none" stroke-width="1" fill="none" fill-rule="evenodd">
        <g id="CRN_Homepage_V2.2-Opt-2" transform="translate(-258.000000, -3923.000000)">
            <g id="03" transform="translate(0.000000, 3162.000000)">
                <g id="Group-99" transform="translate(259.000000, 756.000000)">
                    <g id="Group-70">
                        <g id="Group-71">
                            <g id="Group-38">
                                <g id="Group-18" transform="translate(0.000000, 6.000000)">
                                    <path d="M-7.20319804e-13,14.874624 C-7.20319804e-13,14.890176 0.001152,14.904576 0.002304,14.919552 L0.817344,26.0352 C0.950976,27.571968 2.713536,28.87488 4.384512,29.235456 L5.444352,43.55712 C5.508288,44.455104 6.281856,45.187776 7.166592,45.187776 L13.06944,45.187776 C13.954176,45.187776 14.726592,44.456256 14.792832,43.555392 L15.852096,29.235456 C17.521344,28.87488 19.282752,27.577152 19.418688,26.05248 L20.232576,15.113664 C20.240064,14.978304 20.237616,14.89536 20.23488,14.848128 C20.235456,12.3696 18.249984,10.279872 15.808896,10.219392 L4.453632,10.219392 C1.991232,10.279872 -7.20319804e-13,12.368448 -7.20319804e-13,14.874624" id="Fill-197" fill="#0D2B54"></path>
                                    <path d="M14.3516736,4.2338304 C14.3516736,1.8993024 12.4526016,0.000230400003 10.1180736,0.000230400003 C7.7841216,0.000230400003 5.8850496,1.8993024 5.8850496,4.2338304 C5.8850496,6.5689344 7.7841216,8.4680064 10.1180736,8.4680064 C12.4526016,8.4680064 14.3516736,6.5689344 14.3516736,4.2338304" id="Fill-198" fill="#0D2B54"></path>
                                    <path d="M0.6182208,14.8741056 L1.4344128,25.9909056 C1.5490368,27.3145536 3.3392448,28.4665536 4.7769408,28.6790976 C4.8414528,28.6883136 4.9036608,28.6969536 4.9647168,28.7021376 L6.0602688,43.5116736 C6.1028928,44.0951616 6.5994048,44.5697856 7.1667648,44.5697856 L13.0690368,44.5697856 C13.6363968,44.5697856 14.1329088,44.0951616 14.1761088,43.5116736 L15.2716608,28.7015616 C15.3321408,28.6963776 15.3949248,28.6883136 15.4611648,28.6790976 C16.8971328,28.4671296 18.6856128,27.3145536 18.8025408,25.9978176 L19.6164288,15.0682176 C19.6210368,14.9772096 19.6187328,14.9144256 19.6175808,14.8787136 C19.6175808,12.7002816 17.9028288,10.8899136 15.7935168,10.8374976 L4.4538048,10.8374976 C2.3341248,10.8899136 0.6182208,12.7002816 0.6182208,14.8741056 Z" id="Stroke-199" stroke="#FFFFFF" stroke-width="1.488384" stroke-linecap="round" stroke-linejoin="round"></path>
                                    <path d="M10.1182464,7.8498432 C12.1117824,7.8498432 13.7332224,6.2278272 13.7332224,4.2342912 C13.7332224,2.2407552 12.1117824,0.6187392 10.1182464,0.6187392 C8.1247104,0.6187392 6.5032704,2.2407552 6.5032704,4.2342912 C6.5032704,6.2278272 8.1247104,7.8498432 10.1182464,7.8498432 Z" id="Stroke-200" stroke="#FFFFFF" stroke-width="1.488384" stroke-linecap="round" stroke-linejoin="round"></path>
                                    <line x1="10.1210688" y1="27.6622272" x2="10.1210688" y2="44.1024192" id="Stroke-201" stroke="#FFFFFF" stroke-width="1.488384" stroke-linecap="round" stroke-linejoin="round"></line>
                                    <line x1="15.2718912" y1="28.7014464" x2="16.1854272" y2="16.3520064" id="Stroke-202" stroke="#2E2D2C" stroke-width="1.488384" stroke-linecap="round" stroke-linejoin="round"></line>
                                    <line x1="4.9646592" y1="28.7014464" x2="4.0511232" y2="16.3520064" id="Stroke-203" stroke="#FFFFFF" stroke-width="1.488384" stroke-linecap="round" stroke-linejoin="round"></line>
                                    <path d="M40.0252608,10.21968 L28.6699968,10.21968 C26.2289088,10.279584 24.2434368,12.369312 24.2440128,14.848416 C24.2417088,14.895072 24.2388288,14.978592 24.2457408,15.113952 L25.0602048,26.052192 C25.1961408,27.576864 26.9575488,28.874592 28.6262208,29.235744 L29.6866368,43.55568 C29.7523008,44.455968 30.5247168,45.187488 31.4088768,45.187488 L37.3117248,45.187488 C38.1964608,45.187488 38.9700288,44.455392 39.0345408,43.556832 L40.0938048,29.235744 C41.7653568,28.874592 43.5279168,27.57168 43.6609728,26.035488 L44.4771648,14.919264 C44.4777408,14.904864 44.4783168,14.890464 44.4783168,14.874912 C44.4783168,12.36816 42.4876608,10.279584 40.0252608,10.21968" id="Fill-204" fill="#0D2B54"></path>
                                    <path d="M34.3608768,8.467776 C36.6948288,8.467776 38.5939008,6.568704 38.5939008,4.2336 C38.5939008,1.899072 36.6948288,2.62446065e-13 34.3608768,2.62446065e-13 C32.0257728,2.62446065e-13 30.1267008,1.899072 30.1267008,4.2336 C30.1267008,6.568704 32.0257728,8.467776 34.3608768,8.467776" id="Fill-205" fill="#0D2B54"></path>
                                    <path d="M43.860384,14.8741056 L43.044768,25.9909056 C42.929568,27.3145536 41.13936,28.4665536 39.701664,28.6790976 C39.637152,28.6883136 39.574944,28.6969536 39.513888,28.7021376 L38.418336,43.5116736 C38.375712,44.0951616 37.8792,44.5697856 37.31184,44.5697856 L31.409568,44.5697856 C30.842208,44.5697856 30.345696,44.0951616 30.302496,43.5116736 L29.206944,28.7015616 C29.146464,28.6963776 29.08368,28.6883136 29.01744,28.6790976 C27.581472,28.4671296 25.792992,27.3145536 25.676064,25.9978176 L24.862752,15.0682176 C24.857568,14.9772096 24.859872,14.9144256 24.861024,14.8787136 C24.861024,12.7002816 26.576352,10.8899136 28.685088,10.8374976 L40.025376,10.8374976 C42.14448,10.8899136 43.860384,12.7002816 43.860384,14.8741056 Z" id="Stroke-206" stroke="#FFFFFF" stroke-width="1.488384" stroke-linecap="round" stroke-linejoin="round"></path>
                                    <path d="M34.3608768,7.8498432 C32.3667648,7.8498432 30.7453248,6.2278272 30.7453248,4.2342912 C30.7453248,2.2407552 32.3667648,0.6187392 34.3608768,0.6187392 C36.3538368,0.6187392 37.9752768,2.2407552 37.9752768,4.2342912 C37.9752768,6.2278272 36.3538368,7.8498432 34.3608768,7.8498432 Z" id="Stroke-207" stroke="#FFFFFF" stroke-width="1.488384" stroke-linecap="round" stroke-linejoin="round"></path>
                                    <line x1="34.357536" y1="27.6622272" x2="34.357536" y2="44.1024192" id="Stroke-208" stroke="#FFFFFF" stroke-width="1.488384" stroke-linecap="round" stroke-linejoin="round"></line>
                                    <line x1="29.2067136" y1="28.7014464" x2="28.2931776" y2="16.3520064" id="Stroke-209" stroke="#2E2D2C" stroke-width="1.488384" stroke-linecap="round" stroke-linejoin="round"></line>
                                    <line x1="39.5139456" y1="28.7014464" x2="40.4274816" y2="16.3520064" id="Stroke-210" stroke="#FFFFFF" stroke-width="1.488384" stroke-linecap="round" stroke-linejoin="round"></line>
                                    <path d="M19.2892608,51.9507072 C18.0249408,51.9507072 16.9190208,50.9087232 16.8251328,49.6294272 L15.8027328,35.8348032 C14.0845248,35.2847232 12.3576768,33.9023232 12.1987008,32.1368832 L11.3853888,21.1871232 C11.3732928,20.9981952 11.3773248,20.8870272 11.3813568,20.8236672 C11.3802048,17.9747712 13.6911168,15.5642112 16.5313728,15.4939392 L27.9050688,15.4939392 C30.7798848,15.5642112 33.1034688,17.9862912 33.1034688,20.8927872 L32.2838208,32.1080832 C32.1288768,33.8931072 30.4008768,35.2835712 28.6780608,35.8348032 L27.6568128,49.6305792 C27.5646528,50.9092992 26.4587328,51.9507072 25.1926848,51.9507072 L19.2892608,51.9507072 Z" id="Fill-211" fill="#0D2B54"></path>
                                    <path d="M27.924192,14.7500352 L27.90576,14.7500352 L16.550496,14.7500352 C13.284,14.8300992 10.65456,17.5551552 10.636128,20.8314432 C10.632672,20.9097792 10.630944,21.0318912 10.64016,21.2121792 L11.456352,32.1815232 C11.631456,34.1428032 13.28112,35.6513472 15.097248,36.3736512 L16.082784,49.6838592 C16.206048,51.3715392 17.614944,52.6946112 19.289952,52.6946112 L25.192224,52.6946112 C26.869536,52.6946112 28.277856,51.3715392 28.399392,49.6821312 L29.383776,36.3736512 C31.20336,35.6501952 32.854752,34.1376192 33.024096,32.1826752 L33.84144,21.0468672 L33.845472,20.9921472 L33.8472,20.8930752 C33.8472,17.5856832 31.198176,14.8300992 27.942048,14.7500352 L27.924192,14.7500352 Z M27.90576,16.2378432 C30.36816,16.2983232 32.358816,18.3868992 32.358816,20.8930752 C32.358816,20.9086272 32.35824,20.9236032 32.357088,20.9380032 L31.541472,32.0542272 C31.408416,33.5904192 29.645856,34.8933312 27.974304,35.2539072 L26.91504,49.5755712 C26.850528,50.4735552 26.077536,51.2062272 25.192224,51.2062272 L19.289952,51.2062272 C18.405216,51.2062272 17.6328,50.4747072 17.567136,49.5744192 L16.507296,35.2539072 C14.838048,34.8933312 13.07664,33.5956032 12.940704,32.0709312 L12.12624,21.1321152 C12.119328,20.9967552 12.121632,20.9138112 12.123936,20.8665792 C12.12336,18.3880512 14.109408,16.2983232 16.550496,16.2378432 L27.90576,16.2378432 L27.90576,16.2378432 Z" id="Fill-212" fill="#0D2B54"></path>
                                    <path d="M22.2418368,15.2301312 C19.4966208,15.2301312 17.2628928,12.9969792 17.2628928,10.2529152 C17.2628928,7.5076992 19.4966208,5.2745472 22.2418368,5.2745472 C24.9870528,5.2745472 27.2196288,7.5076992 27.2196288,10.2529152 C27.2196288,12.9969792 24.9870528,15.2301312 22.2418368,15.2301312" id="Fill-213" fill="#0D2B54"></path>
                                    <path d="M22.2412608,4.530528 C19.0859328,4.530528 16.5192768,7.09776 16.5192768,10.252512 C16.5192768,13.40784 19.0859328,15.974496 22.2412608,15.974496 C25.3965888,15.974496 27.9626688,13.40784 27.9626688,10.252512 C27.9626688,7.09776 25.3965888,4.530528 22.2412608,4.530528 M22.2412608,6.018912 C24.5757888,6.018912 26.4748608,7.917408 26.4748608,10.252512 C26.4748608,12.58704 24.5757888,14.486112 22.2412608,14.486112 C19.9061568,14.486112 18.0076608,12.58704 18.0076608,10.252512 C18.0076608,7.917408 19.9061568,6.018912 22.2412608,6.018912" id="Fill-214" fill="#0D2B54"></path>
                                    <path d="M22.2412608,13.86864 C20.2477248,13.86864 18.6257088,12.246624 18.6257088,10.253088 C18.6257088,8.259552 20.2477248,6.637536 22.2412608,6.637536 C24.2347968,6.637536 25.8562368,8.259552 25.8562368,10.253088 C25.8562368,12.246624 24.2347968,13.86864 22.2412608,13.86864 Z" id="Stroke-215" stroke="#F7992C" stroke-width="1.488384" stroke-linecap="round" stroke-linejoin="round"></path>
                                    <line x1="22.2384384" y1="33.6806784" x2="22.2384384" y2="50.1208704" id="Stroke-216" stroke="#F7992C" stroke-width="1.488384" stroke-linecap="round" stroke-linejoin="round"></line>
                                    <line x1="17.0870976" y1="34.7201856" x2="16.1735616" y2="22.3707456" id="Stroke-217" stroke="#F7992C" stroke-width="1.488384" stroke-linecap="round" stroke-linejoin="round"></line>
                                    <line x1="27.3943296" y1="34.7201856" x2="28.3084416" y2="22.3707456" id="Stroke-218" stroke="#F7992C" stroke-width="1.488384" stroke-linecap="round" stroke-linejoin="round"></line>
                                    <path d="M31.740768,20.8925568 L30.925152,32.0093568 C30.809952,33.3330048 29.02032,34.4850048 27.582048,34.6975488 C27.517536,34.7067648 27.455328,34.7154048 27.394272,34.7205888 L26.299296,49.5301248 C26.256672,50.1136128 25.759584,50.5882368 25.192224,50.5882368 L19.289952,50.5882368 C18.722592,50.5882368 18.22608,50.1136128 18.18288,49.5301248 L17.087328,34.7200128 C17.026848,34.7148288 16.964064,34.7067648 16.8984,34.6975488 C15.462432,34.4855808 13.673376,33.3330048 13.557024,32.0162688 L12.743136,21.0866688 C12.738528,20.9956608 12.7401792,20.9328768 12.741984,20.8977408 C12.741984,18.7193088 14.456736,16.9083648 16.565472,16.8559488 L27.90576,16.8559488 C30.024864,16.9083648 31.740768,18.7193088 31.740768,20.8925568 Z" id="Stroke-219" stroke="#F7992C" stroke-width="1.488384" stroke-linecap="round" stroke-linejoin="round"></path>
                                </g>
                            </g>
                        </g>
                    </g>
                </g>
            </g>
        </g>
    </g>
</svg>
