<?xml version="1.0" encoding="UTF-8"?>
<svg width="26px" height="26px" viewBox="0 0 26 26" version="1.1" xmlns="http://www.w3.org/2000/svg" xmlns:xlink="http://www.w3.org/1999/xlink">
    <!-- Generator: Sketch 63.1 (92452) - https://sketch.com -->
    <title>Shape</title>
    <desc>Created with Sketch.</desc>
    <defs>
        <linearGradient x1="8.54767689%" y1="0%" x2="91.6903806%" y2="93.6889162%" id="linearGradient-1">
            <stop stop-color="#5C9CBF" offset="0%"></stop>
            <stop stop-color="#006599" offset="100%"></stop>
        </linearGradient>
    </defs>
    <g id="Desktop" stroke="none" stroke-width="1" fill="none" fill-rule="evenodd">
        <g id="CRN_Resource-Detail" transform="translate(-285.000000, -866.000000)" fill="url(#linearGradient-1)" fill-rule="nonzero">
            <g id="Social-Share" transform="translate(284.000000, 561.000000)">
                <g id="Share-Article" transform="translate(0.200000, 304.400000)">
                    <g id="Group-76" transform="translate(0.800000, 0.600000)">
                        <g id="iconmonstr-linkedin-3-(1)">
                            <path d="M20.5041667,0 L5.39583333,0 C2.41625417,0 0,2.41625417 0,5.39583333 L0,20.5041667 C0,23.4837458 2.41625417,25.9 5.39583333,25.9 L20.5041667,25.9 C23.484825,25.9 25.9,23.4837458 25.9,20.5041667 L25.9,5.39583333 C25.9,2.41625417 23.484825,0 20.5041667,0 Z M8.63333333,20.5041667 L5.39583333,20.5041667 L5.39583333,8.63333333 L8.63333333,8.63333333 L8.63333333,20.5041667 Z M7.01458333,7.26495 C5.97210833,7.26495 5.12604167,6.41240833 5.12604167,5.3613 C5.12604167,4.31019167 5.97210833,3.45765 7.01458333,3.45765 C8.05705833,3.45765 8.903125,4.31019167 8.903125,5.3613 C8.903125,6.41240833 8.0581375,7.26495 7.01458333,7.26495 Z M21.5833333,20.5041667 L18.3458333,20.5041667 L18.3458333,14.4565167 C18.3458333,10.8218833 14.0291667,11.0970708 14.0291667,14.4565167 L14.0291667,20.5041667 L10.7916667,20.5041667 L10.7916667,8.63333333 L14.0291667,8.63333333 L14.0291667,10.5380625 C15.5356833,7.7473375 21.5833333,7.54121667 21.5833333,13.2100792 L21.5833333,20.5041667 Z" id="Shape"></path>
                        </g>
                    </g>
                </g>
            </g>
        </g>
    </g>
</svg>