<?xml version="1.0" encoding="UTF-8"?>
<svg width="27px" height="25px" viewBox="0 0 27 25" version="1.1" xmlns="http://www.w3.org/2000/svg" xmlns:xlink="http://www.w3.org/1999/xlink">
    <!-- Generator: Sketch 63.1 (92452) - https://sketch.com -->
    <title>Shape</title>
    <desc>Created with Sketch.</desc>
    <g id="Desktop" stroke="none" stroke-width="1" fill="none" fill-rule="evenodd">
        <g id="CRN_Homepage_V2.2-Opt-2" transform="translate(-612.000000, -8187.000000)" fill="#D3D3D3" fill-rule="nonzero">
            <g id="Group-65" transform="translate(520.200000, 8173.300000)">
                <g id="Group-62" transform="translate(92.400000, 0.000000)">
                    <g id="Group-63">
                        <g id="Group-64">
                            <g id="noun_comments_1524021" transform="translate(0.000000, 14.080000)">
                                <path d="M25.41,0 L0.99,0 C0.443238098,0 0,0.450732323 0,1.00673882 L0,16.6783065 C0.017139902,17.2269312 0.450497127,17.6676156 0.99,17.6850453 L6.666,17.6850453 L6.666,22.7522973 C6.66646903,23.1387861 6.88447426,23.490884 7.227,23.6583623 C7.36111971,23.7231856 7.50750954,23.757539 7.656,23.7590362 C7.88762828,23.7701108 8.11380207,23.6853747 8.283,23.5241304 L15.18,17.6850453 L25.41,17.6850453 C25.9495029,17.6676156 26.3828601,17.2269312 26.4,16.6783065 L26.4,1.00673882 C26.4,0.450732323 25.9567619,0 25.41,0 Z M5.379,5.10081002 L14.685,5.10081002 L14.685,7.11428767 L5.379,7.11428767 L5.379,5.10081002 Z M21.021,11.946634 L5.379,11.946634 L5.379,9.93315636 L21.021,9.93315636 L21.021,11.946634 Z" id="Shape"></path>
                            </g>
                        </g>
                    </g>
                </g>
            </g>
        </g>
    </g>
</svg>