<?xml version="1.0" encoding="UTF-8"?>
<svg width="27px" height="25px" viewBox="0 0 27 25" version="1.1" xmlns="http://www.w3.org/2000/svg" xmlns:xlink="http://www.w3.org/1999/xlink">
    <!-- Generator: Sketch 63.1 (92452) - https://sketch.com -->
    <title>Path</title>
    <desc>Created with Sketch.</desc>
    <g id="Desktop" stroke="none" stroke-width="1" fill="none" fill-rule="evenodd">
        <g id="CRN_Homepage_V2.2-Opt-2" transform="translate(-520.000000, -8187.000000)" fill="#FA4646" fill-rule="nonzero">
            <g id="Group-65" transform="translate(520.200000, 8173.300000)">
                <g id="Group-62">
                    <g id="Group-63">
                        <g id="noun_Heart_968107" transform="translate(0.000000, 14.080000)">
                            <path d="M24.1766894,2.29821866 C21.2175492,-0.758792765 16.4232436,-0.758792765 13.4641034,2.29821866 L13.2001165,2.57123324 L12.9361297,2.29821866 C9.97938871,-0.763405456 5.1826097,-0.766461238 2.22222385,2.29139338 C-0.738161993,5.349248 -0.741116802,10.3100657 2.2156241,13.3716899 L2.47961094,13.6447045 L9.30367078,20.7048615 L9.30367078,20.7048615 L10.8875918,22.3429489 L10.9139905,22.3729806 L11.5897968,23.074628 C12.478435,23.9884573 13.9138785,23.9884573 14.8025167,23.074628 L15.4281655,22.4275835 L15.4281655,22.4275835 L17.0860028,20.7130519 L17.0860028,20.7130519 L23.9047829,13.6556251 L24.1687698,13.3826105 C25.5955457,11.9162652 26.3985116,9.92237339 26.4,7.84211664 C26.4014842,5.76185988 25.6013684,3.76674299 24.1766894,2.29821866 L24.1766894,2.29821866 Z" id="Path"></path>
                        </g>
                    </g>
                </g>
            </g>
        </g>
    </g>
</svg>