<svg width="237" height="79" xmlns="http://www.w3.org/2000/svg"><path d="M5.748 51.367c3.057 3.04 6.705 5.35 10.452 7.351 3.765 1.99 7.687 3.645 11.667 5.112 8.434 3.083 17.13 5.365 25.892 7.246 8.766 1.87 17.618 3.31 26.503 4.437a396.126 396.126 0 0 0 53.53 3.058c8.924-.104 17.835-.521 26.688-1.336 8.85-.818 17.65-2.03 26.282-3.828 8.616-1.813 17.105-4.19 25.003-7.64 3.94-1.727 7.724-3.732 11.161-6.121 3.432-2.385 6.52-5.168 8.89-8.38 2.823-3.79 4.54-8.197 4.891-12.721.392-4.514-.474-9.152-2.772-13.269-2.274-4.129-5.833-7.663-9.914-10.562-4.092-2.91-8.694-5.249-13.464-7.225-9.576-3.93-38.905-8.79-30.41-7.036 8.485 1.764 16.864 3.94 24.798 6.895 3.96 1.48 7.803 3.163 11.392 5.128 3.586 1.962 6.919 4.22 9.711 6.83 2.85 2.66 5.098 5.703 6.408 9.012 1.324 3.302 1.701 6.853 1.287 10.368-.402 3.494-1.669 6.841-3.704 9.845-2.025 3.01-4.787 5.674-7.964 7.979-3.177 2.31-6.764 4.268-10.544 5.962-3.784 1.69-7.769 3.118-11.855 4.348-8.182 2.455-16.751 4.14-25.425 5.365-17.378 2.412-35.194 3.038-52.964 2.568-17.776-.506-35.577-2.133-53.088-5.084-10.04-1.712-20-3.862-29.635-6.757-4.81-1.453-9.538-3.096-14.053-5.042-4.498-1.95-8.836-4.202-12.447-6.982-1.79-1.39-3.384-2.92-4.538-4.576-1.158-1.655-1.846-3.423-1.888-5.2-.026-.875.1-1.812.352-2.706.253-.897.63-1.776 1.123-2.623.983-1.696 2.4-3.265 4.056-4.685 3.33-2.843 7.505-5.115 11.875-7.055 4.391-1.934 9.035-3.54 13.775-4.944 7.035-2.077 14.29-3.715 21.623-5.084 7.336-1.366 14.76-2.454 22.224-3.328a417.756 417.756 0 0 1 45.103-2.763c13.538-.08 27.507.431 41.114 1.717 6.787.664 13.524 1.503 19.822 2.888 3.124.701 6.185 1.552 8.693 2.733 1.241.587 2.313 1.272 2.977 1.975.656.706.951 1.373.863 2.333a2.417 2.417 0 0 0 1.46-1.684c.245-.908-.077-2.218-1.051-3.48-.958-1.271-2.458-2.484-4.261-3.56-1.808-1.08-3.928-2.04-6.261-2.898-4.675-1.711-10.2-3.015-16.225-4.006-6.03-.99-12.575-1.662-19.394-2.072-17.182-1.004-34.22-.398-51.072 1.09-16.85 1.53-33.546 3.937-50.007 7.486-8.18 1.787-16.304 3.89-24.182 6.69-3.934 1.407-7.806 2.997-11.516 4.904-3.696 1.916-7.274 4.14-10.3 7.026-1.503 1.442-2.858 3.062-3.882 4.887-1.027 1.82-1.702 3.85-1.856 5.945-.168 2.132.304 4.32 1.25 6.267.937 1.957 2.296 3.677 3.807 5.202z" fill="#EB9B3F" fill-rule="evenodd"/></svg>