<?xml version="1.0" encoding="UTF-8"?>
<svg width="50px" height="50px" viewBox="0 0 50 50" version="1.1" xmlns="http://www.w3.org/2000/svg" xmlns:xlink="http://www.w3.org/1999/xlink">
    <g id="Desktop" stroke="none" stroke-width="1" fill="none" fill-rule="evenodd">
        <g id="CRN_Homepage_V2.2-Opt-2" transform="translate(-1232.000000, -3925.000000)" fill-rule="nonzero">
            <g id="03" transform="translate(0.000000, 3162.000000)">
                <g id="noun_approval_1326945" transform="translate(1233.000000, 764.000000)">
                    <path d="M38.4558824,44.5588235 C38.0147059,44.5588235 37.7205882,44.8529412 37.7205882,45.2941176 L37.7205882,47.0588235 L1.47058824,47.0588235 L1.47058824,1.47058824 L26.1029412,1.47058824 L26.1029412,13.3088235 C26.1029412,13.75 26.3970588,14.0441176 26.8382353,14.0441176 L37.7941176,14.0441176 L37.7941176,20.9558824 C37.7941176,21.3970588 38.0882353,21.6911765 38.5294118,21.6911765 C38.9705882,21.6911765 39.2647059,21.3970588 39.2647059,20.9558824 L39.2647059,13.3088235 C39.2647059,13.1617647 39.1911765,12.9411765 39.0441176,12.7941176 L27.3529412,0.220588235 C27.3529412,0.220588235 27.3529412,0.220588235 27.3529412,0.220588235 C27.2058824,0.0735294118 26.9852941,0 26.7647059,0 C26.7647059,0 26.7647059,0 26.7647059,0 L0.735294118,0 C0.294117647,0 0,0.294117647 0,0.735294118 L0,47.7941176 C0,48.2352941 0.294117647,48.5294118 0.735294118,48.5294118 L38.4558824,48.5294118 C38.8970588,48.5294118 39.1911765,48.2352941 39.1911765,47.7941176 L39.1911765,45.2941176 C39.1911765,44.9264706 38.8970588,44.5588235 38.4558824,44.5588235 Z M27.5735294,12.5735294 L27.5735294,2.57352941 L36.7647059,12.5735294 L27.5735294,12.5735294 Z" id="Shape" stroke="#FFFFFF" stroke-width="0.2" fill="#FFFFFF"></path>
                    <path d="M4.55882353,31.9117647 L23.6764706,31.9117647 C24.1176471,31.9117647 24.4117647,31.6176471 24.4117647,31.1764706 C24.4117647,30.7352941 24.1176471,30.4411765 23.6764706,30.4411765 L4.55882353,30.4411765 C4.11764706,30.4411765 3.82352941,30.7352941 3.82352941,31.1764706 C3.82352941,31.5441176 4.11764706,31.9117647 4.55882353,31.9117647 Z" id="Path" stroke="#FFFFFF" stroke-width="0.2" fill="#FFFFFF"></path>
                    <path d="M4.55882353,37.2058824 L24.4117647,37.2058824 C24.8529412,37.2058824 25.1470588,36.9117647 25.1470588,36.4705882 C25.1470588,36.0294118 24.8529412,35.7352941 24.4117647,35.7352941 L4.55882353,35.7352941 C4.11764706,35.7352941 3.82352941,36.0294118 3.82352941,36.4705882 C3.82352941,36.9117647 4.11764706,37.2058824 4.55882353,37.2058824 Z" id="Path" stroke="#FFFFFF" stroke-width="0.2" fill="#FFFFFF"></path>
                    <path d="M4.55882353,42.5 L26.6176471,42.5 C27.0588235,42.5 27.3529412,42.2058824 27.3529412,41.7647059 C27.3529412,41.3235294 27.0588235,41.0294118 26.6176471,41.0294118 L4.55882353,41.0294118 C4.11764706,41.0294118 3.82352941,41.3235294 3.82352941,41.7647059 C3.82352941,42.2058824 4.11764706,42.5 4.55882353,42.5 Z" id="Path" stroke="#FFFFFF" stroke-width="0.2" fill="#FFFFFF"></path>
                    <path d="M30.2941176,20.1470588 C30.2941176,19.7058824 30,19.4117647 29.5588235,19.4117647 L4.55882353,19.4117647 C4.11764706,19.4117647 3.82352941,19.7058824 3.82352941,20.1470588 C3.82352941,20.5882353 4.11764706,20.8823529 4.55882353,20.8823529 L29.5588235,20.8823529 C30,20.8823529 30.2941176,20.5147059 30.2941176,20.1470588 Z" id="Path" stroke="#FFFFFF" stroke-width="0.2" fill="#FFFFFF"></path>
                    <path d="M4.55882353,26.1764706 L25.1470588,26.1764706 C25.5882353,26.1764706 25.8823529,25.8823529 25.8823529,25.4411765 C25.8823529,25 25.5882353,24.7058824 25.1470588,24.7058824 L4.55882353,24.7058824 C4.11764706,24.7058824 3.82352941,25 3.82352941,25.4411765 C3.82352941,25.8823529 4.11764706,26.1764706 4.55882353,26.1764706 Z" id="Path" stroke="#FFFFFF" stroke-width="0.2" fill="#FFFFFF"></path>
                    <path d="M48.3088235,32.4264706 L46.4705882,30.6617647 L47.1323529,28.2352941 C47.2058824,27.8676471 46.9852941,27.4264706 46.6176471,27.3529412 L44.4117647,26.7647059 L43.8970588,24.5588235 C43.8235294,24.3382353 43.75,24.1911765 43.6029412,24.1176471 C43.4558824,24.0441176 43.2352941,23.9705882 43.0147059,24.0441176 L40.2205882,24.6323529 L38.1617647,22.6470588 C38.0147059,22.5 37.7941176,22.4264706 37.6470588,22.4264706 C37.4264706,22.4264706 37.2794118,22.5 37.1323529,22.6470588 L35.2941176,24.4117647 L32.8676471,23.75 C32.6470588,23.6764706 32.5,23.75 32.2794118,23.8235294 C32.1323529,23.8970588 31.9852941,24.1176471 31.9117647,24.2647059 L31.3235294,26.4705882 L29.1176471,26.9852941 C28.75,27.0588235 28.4558824,27.5 28.5294118,27.8676471 L29.1176471,30.7352941 L27.2058824,32.7941176 C26.9117647,33.0882353 26.9117647,33.5294118 27.2058824,33.8235294 L29.0441176,35.5882353 L28.3823529,38.0147059 C28.3088235,38.3823529 28.5294118,38.8235294 28.8970588,38.8970588 L31.1029412,39.4852941 L31.6176471,41.6911765 C31.6911765,41.9117647 31.7647059,42.0588235 31.9117647,42.1323529 C32.0588235,42.2058824 32.2794118,42.2794118 32.5,42.2058824 L35.2941176,41.6176471 L37.3529412,43.6029412 C37.5,43.75 37.6470588,43.8235294 37.8676471,43.8235294 C37.8676471,43.8235294 37.8676471,43.8235294 37.8676471,43.8235294 C38.0882353,43.8235294 38.2352941,43.75 38.3823529,43.6029412 L40.1470588,41.7647059 L42.5735294,42.4264706 C42.7941176,42.5 42.9411765,42.4264706 43.1617647,42.3529412 C43.3088235,42.2794118 43.4558824,42.0588235 43.5294118,41.9117647 L44.1176471,39.7058824 L46.3235294,39.1911765 C46.6911765,39.1176471 46.9852941,38.6764706 46.9117647,38.3088235 L46.3235294,35.5147059 L48.3088235,33.4558824 C48.6029412,33.1617647 48.6029412,32.7205882 48.3088235,32.4264706 Z M45,34.7794118 C44.8529412,34.9264706 44.7794118,35.2205882 44.7794118,35.4411765 L45.2941176,37.9411765 L43.3823529,38.3823529 C43.0882353,38.4558824 42.8676471,38.6764706 42.7941176,38.8970588 L42.2794118,40.8088235 L40.1470588,40.2205882 C39.9264706,40.1470588 39.6323529,40.2205882 39.4117647,40.4411765 L37.8676471,42.0588235 L36.0294118,40.2941176 C35.8823529,40.1470588 35.7352941,40.0735294 35.5147059,40.0735294 C35.4411765,40.0735294 35.4411765,40.0735294 35.3676471,40.0735294 L32.8676471,40.5882353 L32.4264706,38.6029412 C32.3529412,38.3088235 32.1323529,38.0882353 31.9117647,38.0147059 L30,37.5 L30.5882353,35.3676471 C30.6617647,35.1470588 30.5882353,34.8529412 30.3676471,34.6323529 L28.75,33.0882353 L30.5147059,31.25 C30.6617647,31.1029412 30.7352941,30.8088235 30.7352941,30.5882353 L30.1470588,28.3088235 L32.0588235,27.8676471 C32.3529412,27.7941176 32.5735294,27.5735294 32.6470588,27.3529412 L33.1617647,25.4411765 L35.2941176,26.0294118 C35.5147059,26.1029412 35.8088235,26.0294118 36.0294118,25.8088235 L37.5735294,24.1911765 L39.4117647,25.9558824 C39.5588235,26.1029412 39.8529412,26.1764706 40.0735294,26.1764706 L42.5735294,25.6617647 L43.0147059,27.6470588 C43.0882353,27.9411765 43.3088235,28.1617647 43.5294118,28.2352941 L45.4411765,28.75 L44.8529412,30.8823529 C44.7794118,31.1029412 44.8529412,31.3970588 45.0735294,31.6176471 L46.6911765,33.1617647 L45,34.7794118 Z" id="Shape" fill="#F7992C"></path>
                    <path d="M42.3529412,29.8529412 L36.5441176,35.3676471 L34.2647059,32.6470588 C34.0441176,32.3529412 33.5294118,32.2794118 33.2352941,32.5735294 C32.9411765,32.8676471 32.8676471,33.3088235 33.1617647,33.6029412 L35.9558824,36.9852941 C36.1029412,37.1323529 36.25,37.2058824 36.4705882,37.2794118 C36.4705882,37.2794118 36.4705882,37.2794118 36.5441176,37.2794118 C36.7647059,37.2794118 36.9117647,37.2058824 37.0588235,37.0588235 L43.4558824,30.9558824 C43.75,30.6617647 43.75,30.2205882 43.4558824,29.9264706 C43.0882353,29.6323529 42.6470588,29.5588235 42.3529412,29.8529412 Z" id="Path" fill="#F7992C"></path>
                    <path d="M21.8382353,14.2647059 C22.2794118,14.2647059 22.5735294,13.9705882 22.5735294,13.5294118 L22.5735294,6.32352941 C22.5735294,5.88235294 22.2794118,5.58823529 21.8382353,5.58823529 L4.92647059,5.58823529 C4.48529412,5.58823529 4.19117647,5.88235294 4.19117647,6.32352941 L4.19117647,13.4558824 C4.19117647,13.8970588 4.48529412,14.1911765 4.92647059,14.1911765 L21.8382353,14.1911765 L21.8382353,14.2647059 Z M5.66176471,7.05882353 L21.1029412,7.05882353 L21.1029412,12.7205882 L5.66176471,12.7205882 L5.66176471,7.05882353 Z" id="Shape" stroke="#FFFFFF" stroke-width="0.2" fill="#FFFFFF"></path>
                </g>
            </g>
        </g>
    </g>
</svg>
