<?xml version="1.0" encoding="UTF-8"?>
<svg width="49px" height="49px" viewBox="0 0 49 49" version="1.1" xmlns="http://www.w3.org/2000/svg" xmlns:xlink="http://www.w3.org/1999/xlink">
    <g id="Desktop" stroke="none" stroke-width="1" fill="none" fill-rule="evenodd">
        <g id="CRN_Homepage_V2.2-Opt-2" transform="translate(-758.000000, -3926.000000)">
            <g id="03" transform="translate(0.000000, 3162.000000)">
                <g id="Group-15" transform="translate(759.000000, 765.000000)">
                    <line x1="0.02424" y1="47.01882" x2="22.25004" y2="47.01882" id="Stroke-1433" stroke="#FFFFFF" stroke-width="1.5504" stroke-linecap="round" stroke-linejoin="round"></line>
                    <path d="M10.18554,7.7364 C8.05314,7.7364 6.31794,6.0012 6.31794,3.8688 C6.31794,1.7358 8.05314,6.66133815e-14 10.18554,6.66133815e-14 C12.31794,6.66133815e-14 14.05314,1.7358 14.05314,3.8688 C14.05314,6.0012 12.31794,7.7364 10.18554,7.7364" id="Fill-1434" fill="#0D2B54"></path>
                    <path d="M10.18554,7.7364 C8.05314,7.7364 6.31794,6.0012 6.31794,3.8688 C6.31794,1.7358 8.05314,6.66133815e-14 10.18554,6.66133815e-14 C12.31794,6.66133815e-14 14.05314,1.7358 14.05314,3.8688 C14.05314,6.0012 12.31794,7.7364 10.18554,7.7364 Z" id="Stroke-1435" stroke="#FFFFFF" stroke-width="1.5504" stroke-linecap="round" stroke-linejoin="round"></path>
                    <g id="Group-1438" transform="translate(0.000000, 10.893420)">
                        <path d="M16.62972,3.8109 L14.30652,34.9935 C14.26092,35.6181 13.72992,36.1251 13.12272,36.1251 L7.24812,36.1251 C6.64152,36.1251 6.10992,35.6181 6.06372,34.9935 L4.89192,19.1493 C4.82712,19.1439 4.75992,19.1355 4.68972,19.1253 C3.15372,18.8985 1.01952,17.6661 0.89472,16.2573 L0.02412,4.5645 C0.01932,4.4673 0.0210399613,4.4001 0.02292,4.3623 C0.02292,2.0319 1.85772,0.0945 4.11372,0.0393 L30.88332,0.0393 C30.88332,2.1225 29.19492,3.8109 27.11172,3.8109 L16.62972,3.8109" id="Fill-1436" fill="#FFFFFF"></path>
                        <path d="M16.62972,3.8109 L14.30652,34.9935 C14.26092,35.6181 13.72992,36.1251 13.12272,36.1251 L7.24812,36.1251 C6.64152,36.1251 6.10992,35.6181 6.06372,34.9935 L4.89192,19.1493 C4.82712,19.1439 4.75992,19.1355 4.68972,19.1253 C3.15372,18.8985 1.01952,17.6661 0.89472,16.2573 L0.02412,4.5645 C0.01932,4.4673 0.0210399613,4.4001 0.02292,4.3623 C0.02292,2.0319 1.85772,0.0945 4.11372,0.0393 L30.88332,0.0393 C30.88332,2.1225 29.19492,3.8109 27.11172,3.8109 L16.62972,3.8109" id="Stroke-1437" stroke="#FFFFFF" stroke-width="1.5504" stroke-linecap="round" stroke-linejoin="round"></path>
                    </g>
                    <path d="M10.18554,7.7364 C8.05314,7.7364 6.31794,6.0012 6.31794,3.8688 C6.31794,1.7358 8.05314,6.66133815e-14 10.18554,6.66133815e-14 C12.31794,6.66133815e-14 14.05314,1.7358 14.05314,3.8688 C14.05314,6.0012 12.31794,7.7364 10.18554,7.7364 Z" id="Stroke-1439" stroke="#FFFFFF" stroke-width="1.5504" stroke-linecap="round" stroke-linejoin="round"></path>
                    <g id="Group-1442" transform="translate(0.000000, 10.893420)">
                        <path d="M16.62972,3.8109 L14.30652,34.9935 C14.26092,35.6181 13.72992,36.1251 13.12272,36.1251 L7.24812,36.1251 C6.64152,36.1251 6.10992,35.6181 6.06372,34.9935 L4.89192,19.1493 C4.82712,19.1439 4.75992,19.1355 4.68972,19.1253 C3.15372,18.8985 1.01952,17.6661 0.89472,16.2573 L0.02412,4.5645 C0.01932,4.4673 0.0210399613,4.4001 0.02292,4.3623 C0.02292,2.0319 1.85772,0.0945 4.11372,0.0393 L30.88332,0.0393 C30.88332,2.1225 29.19492,3.8109 27.11172,3.8109 L16.62972,3.8109" id="Fill-1440" fill="#0D2B54"></path>
                        <path d="M16.62972,3.8109 L14.30652,34.9935 C14.26092,35.6181 13.72992,36.1251 13.12272,36.1251 L7.24812,36.1251 C6.64152,36.1251 6.10992,35.6181 6.06372,34.9935 L4.89192,19.1493 C4.82712,19.1439 4.75992,19.1355 4.68972,19.1253 C3.15372,18.8985 1.01952,17.6661 0.89472,16.2573 L0.02412,4.5645 C0.01932,4.4673 0.0210399613,4.4001 0.02292,4.3623 C0.02292,2.0319 1.85772,0.0945 4.11372,0.0393 L30.88332,0.0393 C30.88332,2.1225 29.19492,3.8109 27.11172,3.8109 L16.62972,3.8109" id="Stroke-1441" stroke="#FFFFFF" stroke-width="1.5504" stroke-linecap="round" stroke-linejoin="round"></path>
                    </g>
                    <line x1="10.18236" y1="28.93152" x2="10.18236" y2="46.51872" id="Stroke-1443" stroke="#FFFFFF" stroke-width="1.5504" stroke-linecap="round" stroke-linejoin="round"></line>
                    <line x1="4.89162" y1="30.04302" x2="3.91422" y2="16.83162" id="Stroke-1444" stroke="#FFFFFF" stroke-width="1.5504" stroke-linecap="round" stroke-linejoin="round"></line>
                    <polygon id="Stroke-1445" stroke="#F7992C" stroke-width="1.5504" stroke-linecap="round" stroke-linejoin="round" points="22.2504 47.01882 30.2814 47.01882 30.2814 33.43962 22.2504 33.43962"></polygon>
                    <polygon id="Stroke-1446" stroke="#F7992C" stroke-width="1.5504" stroke-linecap="round" stroke-linejoin="round" points="30.2808 47.01882 38.3118 47.01882 38.3118 22.18602 30.2808 22.18602"></polygon>
                    <polygon id="Stroke-1447" stroke="#F7992C" stroke-width="1.5504" stroke-linecap="round" stroke-linejoin="round" points="38.3118 47.01882 46.3428 47.01882 46.3428 10.93242 38.3118 10.93242"></polygon>
                </g>
            </g>
        </g>
    </g>
</svg>
