<svg width="83" height="62" xmlns="http://www.w3.org/2000/svg"><g fill="none" fill-rule="evenodd"><path d="M82.17 15.993a15.088 15.088 0 0 0-1.497-3.419c-1.166-1.947-2.518-3.345-3.895-4.52-1.382-1.165-2.81-2.086-4.252-2.872-3.055-1.647-6.177-2.715-9.31-3.498C60.08.91 56.93.442 53.776.197a70.294 70.294 0 0 0-18.882 1.141 63.841 63.841 0 0 0-9.327 2.578c-3.081 1.118-6.133 2.51-9.107 4.303-2.969 1.802-5.875 3.993-8.542 6.9a31.03 31.03 0 0 0-3.73 4.984 28.862 28.862 0 0 0-2.862 6.43C.451 29.368-.016 32.568 0 35.766c0 3.194.447 6.397 1.38 9.146.925 2.76 2.283 5.023 3.804 6.808 1.526 1.792 3.213 3.151 4.948 4.246 3.482 2.172 7.151 3.348 10.828 4.116 3.683.753 7.395 1.058 11.105 1.112 7.423.088 14.842-.805 22.209-2.21a160.053 160.053 0 0 0 11.014-2.533 155.34 155.34 0 0 0 8.575-2.552A135.174 135.174 0 0 1 67.1 55.91a146.8 146.8 0 0 1-9.175 2.164c-6.135 1.233-12.302 2.073-18.473 2.354-3.085.137-6.17.13-9.248-.073-3.077-.207-6.146-.607-9.182-1.317-3.032-.717-6.04-1.73-8.916-3.317a23.624 23.624 0 0 1-4.156-2.902 19.627 19.627 0 0 1-3.618-4.198c-1.082-1.693-1.965-3.692-2.526-5.935-.566-2.237-.808-4.707-.77-7.201.033-2.478.375-4.907.997-7.14a26.197 26.197 0 0 1 2.55-6.092 28.522 28.522 0 0 1 3.519-4.835 33.477 33.477 0 0 1 4.027-3.781c2.797-2.226 5.753-3.935 8.76-5.329 6.025-2.762 12.26-4.295 18.511-5.057 6.255-.736 12.553-.688 18.79.308 3.577.586 7.14 1.484 10.61 2.925 1.733.724 3.443 1.587 5.087 2.677 1.639 1.092 3.23 2.407 4.583 4.137a12.933 12.933 0 0 1 1.734 2.935c.457 1.09.753 2.29.822 3.535a12.8 12.8 0 0 1-.04 1.922 14.309 14.309 0 0 1-.314 1.91 16.818 16.818 0 0 1-1.28 3.54c-1.08 2.2-2.477 4.053-3.951 5.683-1.482 1.628-3.063 3.041-4.683 4.318-2.406 1.89-4.902 3.486-7.434 4.898a73.792 73.792 0 0 1-7.698 3.702 81.086 81.086 0 0 1-15.746 4.711c-4.75.888-9.669 1.387-14.484 1.32-2.403-.05-4.794-.224-7.047-.81-1.118-.3-2.218-.71-3.135-1.385-.454-.336-.85-.751-1.105-1.204-.252-.455-.376-.906-.375-1.585-.204.21-.409.614-.461 1.272-.058.653.096 1.552.476 2.38.375.833.94 1.592 1.605 2.237a10.365 10.365 0 0 0 2.287 1.65c1.693.915 3.672 1.49 5.818 1.816 2.147.325 4.465.395 6.87.264 6.062-.35 12.024-1.823 17.893-3.903a92.074 92.074 0 0 0 17.323-8.328c2.816-1.757 5.603-3.733 8.283-6.184a36.047 36.047 0 0 0 3.891-4.15c1.239-1.573 2.426-3.355 3.4-5.566a20.27 20.27 0 0 0 1.212-3.671c.305-1.341.48-2.808.469-4.288a15.595 15.595 0 0 0-.63-4.324" fill="#EB9B3F"/><path fill="#FFF" fill-rule="nonzero" d="M41.441 22.314H44.5l-4-3.814-4 3.814h3.059V35.5h1.882z"/></g></svg>