<?xml version="1.0" encoding="UTF-8"?>
<svg width="39px" height="38px" viewBox="0 0 39 38" version="1.1" xmlns="http://www.w3.org/2000/svg" xmlns:xlink="http://www.w3.org/1999/xlink">
    <!-- Generator: Sketch 63.1 (92452) - https://sketch.com -->
    <title>Twitter</title>
    <desc>Created with Sketch.</desc>
    <g id="Desktop" stroke="none" stroke-width="1" fill="none" fill-rule="evenodd">
        <g id="CRN_Homepage_V2" transform="translate(-284.000000, -8384.000000)">
            <g id="07" transform="translate(1.000000, 7605.000000)">
                <g id="Group-68" transform="translate(0.000000, 171.000000)">
                    <g id="Group-60" transform="translate(188.000000, 0.000000)">
                        <g id="Group-77" transform="translate(22.000000, 574.000000)">
                            <g id="Group-76" transform="translate(15.000000, 34.000000)">
                                <g id="Twitter" transform="translate(58.750000, 0.000000)">
                                    <path d="M28.5644531,1.15555797e-31 C33.984375,1.15555797e-31 37.5,3.515625 37.5,8.93554688 L37.5,28.5644531 C37.5,33.984375 33.984375,37.5 28.5644531,37.5 L8.93554688,37.5 C3.515625,37.5 0,33.984375 0,28.5644531 L0,8.93554688 C0,3.515625 3.515625,2.69732848e-24 8.93554688,2.69732848e-24 L28.5644531,1.15555797e-31 Z" id="App-Icon-Shape" fill="#1DA1F2"></path>
                                    <path d="M8.3365625,9.63170791 C8.3365625,9.63170791 12.591875,14.9210829 19.074375,15.2392079 C19.074375,15.2392079 17.75125,11.7310829 21.7065625,9.32639541 C21.7065625,9.32639541 24.92,7.43889541 28.02125,10.4951454 C28.02125,10.4951454 29.42,10.4273329 31.1059375,9.18764541 C31.1059375,9.18764541 31.3540625,10.3282704 29.155625,12.1629579 C29.155625,12.1629579 30.37875,12.0638954 31.7671875,11.1545204 C31.7671875,11.1545204 31.5028125,12.7248329 29.238125,13.8654579 C29.238125,13.8654579 29.9271875,26.2898329 17.8025,29.0092079 C17.8025,29.0092079 11.390625,30.4560829 6.875,26.9135829 C6.875,26.9135829 11.665,27.4123329 14.2096875,24.7429579 C14.2096875,24.7429579 11.0165625,25.0423329 9.4446875,21.2751454 C9.4446875,21.2751454 11.04125,21.5495204 11.69,21.0257704 C11.69,21.0257704 8.321875,21.0504579 7.5734375,16.0110829 C7.5734375,16.0110829 8.945625,16.7095204 9.84375,16.5848329 C9.84375,16.5848329 6.0309375,14.2298329 8.3365625,9.63170791" id="Icon" fill="#FFFFFF"></path>
                                </g>
                            </g>
                        </g>
                    </g>
                </g>
            </g>
        </g>
    </g>
</svg>